<mxfile host="Electron" modified="2023-07-27T10:47:30.207Z" agent="Mozilla/5.0 (Windows NT 10.0; Win64; x64) AppleWebKit/537.36 (KHTML, like Gecko) draw.io/21.6.5 Chrome/114.0.5735.243 Electron/25.3.1 Safari/537.36" etag="ZQkWs72MrQi_p6Da6Y1D" version="21.6.5" type="device">
  <diagram id="prtHgNgQTEPvFCAcTncT" name="Page-1">
    <mxGraphModel dx="1022" dy="507" grid="1" gridSize="10" guides="1" tooltips="1" connect="1" arrows="1" fold="1" page="1" pageScale="1" pageWidth="1169" pageHeight="827" math="0" shadow="0">
      <root>
        <mxCell id="0" />
        <mxCell id="1" parent="0" />
        <mxCell id="dNxyNK7c78bLwvsdeMH5-19" value="Приемка техники в ремонт" style="swimlane;html=1;childLayout=stackLayout;resizeParent=1;resizeParentMax=0;horizontal=0;startSize=20;horizontalStack=0;" parent="1" vertex="1">
          <mxGeometry x="120" y="120" width="840" height="240" as="geometry">
            <mxRectangle x="120" y="120" width="40" height="190" as="alternateBounds" />
          </mxGeometry>
        </mxCell>
        <mxCell id="dNxyNK7c78bLwvsdeMH5-20" value="приемщик" style="swimlane;html=1;startSize=20;horizontal=0;" parent="dNxyNK7c78bLwvsdeMH5-19" vertex="1">
          <mxGeometry x="20" width="820" height="120" as="geometry">
            <mxRectangle x="20" width="660" height="30" as="alternateBounds" />
          </mxGeometry>
        </mxCell>
        <mxCell id="dNxyNK7c78bLwvsdeMH5-25" value="" style="edgeStyle=orthogonalEdgeStyle;rounded=0;orthogonalLoop=1;jettySize=auto;html=1;" parent="dNxyNK7c78bLwvsdeMH5-20" source="dNxyNK7c78bLwvsdeMH5-23" target="dNxyNK7c78bLwvsdeMH5-24" edge="1">
          <mxGeometry relative="1" as="geometry" />
        </mxCell>
        <mxCell id="dNxyNK7c78bLwvsdeMH5-23" value="" style="ellipse;whiteSpace=wrap;html=1;" parent="dNxyNK7c78bLwvsdeMH5-20" vertex="1">
          <mxGeometry x="40" y="40" width="40" height="40" as="geometry" />
        </mxCell>
        <mxCell id="KRgtnpFTlKRBo5wsaVx2-23" style="edgeStyle=orthogonalEdgeStyle;rounded=0;orthogonalLoop=1;jettySize=auto;html=1;exitX=1;exitY=0.5;exitDx=0;exitDy=0;entryX=0;entryY=0.5;entryDx=0;entryDy=0;" edge="1" parent="dNxyNK7c78bLwvsdeMH5-20" source="dNxyNK7c78bLwvsdeMH5-24" target="dNxyNK7c78bLwvsdeMH5-30">
          <mxGeometry relative="1" as="geometry" />
        </mxCell>
        <mxCell id="dNxyNK7c78bLwvsdeMH5-24" value="прием заявки на ремонт" style="rounded=0;whiteSpace=wrap;html=1;fontFamily=Helvetica;fontSize=12;fontColor=#000000;align=center;" parent="dNxyNK7c78bLwvsdeMH5-20" vertex="1">
          <mxGeometry x="120" y="30" width="80" height="60" as="geometry" />
        </mxCell>
        <mxCell id="dNxyNK7c78bLwvsdeMH5-30" value="осмотр объекта ремонта, уточнение заявленной неисправности" style="rounded=0;whiteSpace=wrap;html=1;fontFamily=Helvetica;fontSize=12;fontColor=#000000;align=center;" parent="dNxyNK7c78bLwvsdeMH5-20" vertex="1">
          <mxGeometry x="219" y="20" width="110" height="80" as="geometry" />
        </mxCell>
        <mxCell id="KRgtnpFTlKRBo5wsaVx2-28" value="" style="points=[[0.145,0.145,0],[0.5,0,0],[0.855,0.145,0],[1,0.5,0],[0.855,0.855,0],[0.5,1,0],[0.145,0.855,0],[0,0.5,0]];shape=mxgraph.bpmn.event;html=1;verticalLabelPosition=bottom;labelBackgroundColor=#ffffff;verticalAlign=top;align=center;perimeter=ellipsePerimeter;outlineConnect=0;aspect=fixed;outline=end;symbol=terminate2;" vertex="1" parent="dNxyNK7c78bLwvsdeMH5-20">
          <mxGeometry x="350" y="35" width="50" height="50" as="geometry" />
        </mxCell>
        <mxCell id="KRgtnpFTlKRBo5wsaVx2-41" value="" style="points=[[0.145,0.145,0],[0.5,0,0],[0.855,0.145,0],[1,0.5,0],[0.855,0.855,0],[0.5,1,0],[0.145,0.855,0],[0,0.5,0]];shape=mxgraph.bpmn.event;html=1;verticalLabelPosition=bottom;labelBackgroundColor=#ffffff;verticalAlign=top;align=center;perimeter=ellipsePerimeter;outlineConnect=0;aspect=fixed;outline=end;symbol=terminate2;" vertex="1" parent="dNxyNK7c78bLwvsdeMH5-20">
          <mxGeometry x="540" y="40" width="50" height="50" as="geometry" />
        </mxCell>
        <mxCell id="KRgtnpFTlKRBo5wsaVx2-44" value="" style="endArrow=blockThin;html=1;labelPosition=left;verticalLabelPosition=middle;align=right;verticalAlign=middle;dashed=1;dashPattern=8 4;endFill=0;startArrow=oval;startFill=0;endSize=6;startSize=4;rounded=0;entryX=0.693;entryY=1.017;entryDx=0;entryDy=0;entryPerimeter=0;" edge="1" parent="dNxyNK7c78bLwvsdeMH5-20" target="KRgtnpFTlKRBo5wsaVx2-2">
          <mxGeometry relative="1" as="geometry">
            <mxPoint x="565" y="40" as="sourcePoint" />
            <mxPoint x="564.5" y="-35" as="targetPoint" />
          </mxGeometry>
        </mxCell>
        <mxCell id="KRgtnpFTlKRBo5wsaVx2-45" value="" style="shape=message;html=1;outlineConnect=0;labelPosition=left;verticalLabelPosition=middle;align=right;verticalAlign=middle;spacingRight=5;labelBackgroundColor=#ffffff;fillColor=#C0C0C0;" vertex="1" parent="KRgtnpFTlKRBo5wsaVx2-44">
          <mxGeometry width="24" height="16" relative="1" as="geometry">
            <mxPoint x="8" y="-27" as="offset" />
          </mxGeometry>
        </mxCell>
        <mxCell id="KRgtnpFTlKRBo5wsaVx2-57" style="edgeStyle=orthogonalEdgeStyle;rounded=0;orthogonalLoop=1;jettySize=auto;html=1;exitX=1;exitY=0.5;exitDx=0;exitDy=0;entryX=0;entryY=0.5;entryDx=0;entryDy=0;entryPerimeter=0;" edge="1" parent="dNxyNK7c78bLwvsdeMH5-20" source="KRgtnpFTlKRBo5wsaVx2-48" target="KRgtnpFTlKRBo5wsaVx2-56">
          <mxGeometry relative="1" as="geometry" />
        </mxCell>
        <mxCell id="KRgtnpFTlKRBo5wsaVx2-48" value="прием техники в ремонт и оформление квитанции" style="rounded=0;whiteSpace=wrap;html=1;fontFamily=Helvetica;fontSize=12;fontColor=#000000;align=center;" vertex="1" parent="dNxyNK7c78bLwvsdeMH5-20">
          <mxGeometry x="610" y="30" width="110" height="60" as="geometry" />
        </mxCell>
        <mxCell id="KRgtnpFTlKRBo5wsaVx2-56" value="" style="points=[[0.145,0.145,0],[0.5,0,0],[0.855,0.145,0],[1,0.5,0],[0.855,0.855,0],[0.5,1,0],[0.145,0.855,0],[0,0.5,0]];shape=mxgraph.bpmn.event;html=1;verticalLabelPosition=bottom;labelBackgroundColor=#ffffff;verticalAlign=top;align=center;perimeter=ellipsePerimeter;outlineConnect=0;aspect=fixed;outline=end;symbol=terminate2;" vertex="1" parent="dNxyNK7c78bLwvsdeMH5-20">
          <mxGeometry x="750" y="35" width="50" height="50" as="geometry" />
        </mxCell>
        <mxCell id="dNxyNK7c78bLwvsdeMH5-21" value="сервисный центр" style="swimlane;html=1;startSize=20;horizontal=0;" parent="dNxyNK7c78bLwvsdeMH5-19" vertex="1">
          <mxGeometry x="20" y="120" width="820" height="120" as="geometry">
            <mxRectangle x="20" y="120" width="660" height="30" as="alternateBounds" />
          </mxGeometry>
        </mxCell>
        <mxCell id="KRgtnpFTlKRBo5wsaVx2-15" value="система учета" style="shape=datastore;html=1;labelPosition=center;verticalLabelPosition=bottom;align=center;verticalAlign=top;" vertex="1" parent="dNxyNK7c78bLwvsdeMH5-21">
          <mxGeometry x="60" y="25" width="60" height="70" as="geometry" />
        </mxCell>
        <mxCell id="KRgtnpFTlKRBo5wsaVx2-35" value="проверка наличия ресурсов СЦ" style="rounded=0;whiteSpace=wrap;html=1;fontFamily=Helvetica;fontSize=12;fontColor=#000000;align=center;" vertex="1" parent="dNxyNK7c78bLwvsdeMH5-21">
          <mxGeometry x="430" y="30" width="80" height="60" as="geometry" />
        </mxCell>
        <mxCell id="KRgtnpFTlKRBo5wsaVx2-39" value="" style="points=[[0.25,0.25,0],[0.5,0,0],[0.75,0.25,0],[1,0.5,0],[0.75,0.75,0],[0.5,1,0],[0.25,0.75,0],[0,0.5,0]];shape=mxgraph.bpmn.gateway2;html=1;verticalLabelPosition=bottom;labelBackgroundColor=#ffffff;verticalAlign=top;align=center;perimeter=rhombusPerimeter;outlineConnect=0;outline=none;symbol=none;gwType=exclusive;" vertex="1" parent="dNxyNK7c78bLwvsdeMH5-21">
          <mxGeometry x="540" y="35" width="50" height="50" as="geometry" />
        </mxCell>
        <mxCell id="KRgtnpFTlKRBo5wsaVx2-36" value="" style="edgeStyle=elbowEdgeStyle;fontSize=12;html=1;endArrow=blockThin;endFill=1;rounded=0;exitX=1;exitY=0.5;exitDx=0;exitDy=0;entryX=0;entryY=0.5;entryDx=0;entryDy=0;entryPerimeter=0;" edge="1" parent="dNxyNK7c78bLwvsdeMH5-21" source="KRgtnpFTlKRBo5wsaVx2-35" target="KRgtnpFTlKRBo5wsaVx2-39">
          <mxGeometry width="160" relative="1" as="geometry">
            <mxPoint x="530" y="59.5" as="sourcePoint" />
            <mxPoint x="690" y="59.5" as="targetPoint" />
          </mxGeometry>
        </mxCell>
        <mxCell id="KRgtnpFTlKRBo5wsaVx2-47" value="ремонт&lt;br&gt;возможен" style="text;html=1;align=center;verticalAlign=middle;resizable=0;points=[];autosize=1;strokeColor=none;fillColor=none;" vertex="1" parent="dNxyNK7c78bLwvsdeMH5-21">
          <mxGeometry x="590" y="60" width="80" height="40" as="geometry" />
        </mxCell>
        <mxCell id="KRgtnpFTlKRBo5wsaVx2-60" value="" style="edgeStyle=elbowEdgeStyle;fontSize=12;html=1;endFill=0;startFill=0;endSize=6;startSize=6;dashed=1;dashPattern=1 4;endArrow=openThin;startArrow=openThin;rounded=0;" edge="1" parent="dNxyNK7c78bLwvsdeMH5-21">
          <mxGeometry width="160" relative="1" as="geometry">
            <mxPoint x="120" y="80" as="sourcePoint" />
            <mxPoint x="430" y="79.5" as="targetPoint" />
          </mxGeometry>
        </mxCell>
        <mxCell id="KRgtnpFTlKRBo5wsaVx2-46" value="ремонт&lt;br&gt;невозможен" style="text;html=1;align=center;verticalAlign=middle;resizable=0;points=[];autosize=1;strokeColor=none;fillColor=none;" vertex="1" parent="dNxyNK7c78bLwvsdeMH5-21">
          <mxGeometry x="480" y="-5" width="90" height="40" as="geometry" />
        </mxCell>
        <mxCell id="KRgtnpFTlKRBo5wsaVx2-20" value="" style="edgeStyle=elbowEdgeStyle;fontSize=12;html=1;endFill=0;startFill=0;endSize=6;startSize=6;dashed=1;dashPattern=1 4;endArrow=openThin;startArrow=openThin;rounded=0;exitX=1;exitY=0.5;exitDx=0;exitDy=0;entryX=0.5;entryY=1;entryDx=0;entryDy=0;" edge="1" parent="dNxyNK7c78bLwvsdeMH5-19" source="KRgtnpFTlKRBo5wsaVx2-15" target="dNxyNK7c78bLwvsdeMH5-24">
          <mxGeometry width="160" relative="1" as="geometry">
            <mxPoint x="210" y="150" as="sourcePoint" />
            <mxPoint x="370" y="150" as="targetPoint" />
            <Array as="points">
              <mxPoint x="180" y="90" />
            </Array>
          </mxGeometry>
        </mxCell>
        <mxCell id="KRgtnpFTlKRBo5wsaVx2-43" style="edgeStyle=orthogonalEdgeStyle;rounded=0;orthogonalLoop=1;jettySize=auto;html=1;exitX=0.5;exitY=0;exitDx=0;exitDy=0;exitPerimeter=0;" edge="1" parent="dNxyNK7c78bLwvsdeMH5-19" source="KRgtnpFTlKRBo5wsaVx2-39" target="KRgtnpFTlKRBo5wsaVx2-41">
          <mxGeometry relative="1" as="geometry" />
        </mxCell>
        <mxCell id="KRgtnpFTlKRBo5wsaVx2-50" style="edgeStyle=orthogonalEdgeStyle;rounded=0;orthogonalLoop=1;jettySize=auto;html=1;exitX=1;exitY=0.5;exitDx=0;exitDy=0;exitPerimeter=0;" edge="1" parent="dNxyNK7c78bLwvsdeMH5-19" source="KRgtnpFTlKRBo5wsaVx2-39" target="KRgtnpFTlKRBo5wsaVx2-48">
          <mxGeometry relative="1" as="geometry" />
        </mxCell>
        <mxCell id="KRgtnpFTlKRBo5wsaVx2-51" value="" style="edgeStyle=elbowEdgeStyle;fontSize=12;html=1;endFill=0;startFill=0;endSize=6;startSize=6;dashed=1;dashPattern=1 4;endArrow=openThin;startArrow=openThin;rounded=0;exitX=1.028;exitY=0.814;exitDx=0;exitDy=0;exitPerimeter=0;entryX=0.75;entryY=1;entryDx=0;entryDy=0;" edge="1" parent="dNxyNK7c78bLwvsdeMH5-19" source="KRgtnpFTlKRBo5wsaVx2-15" target="KRgtnpFTlKRBo5wsaVx2-48">
          <mxGeometry width="160" relative="1" as="geometry">
            <mxPoint x="410" y="150" as="sourcePoint" />
            <mxPoint x="570" y="150" as="targetPoint" />
            <Array as="points">
              <mxPoint x="720" y="230" />
            </Array>
          </mxGeometry>
        </mxCell>
        <mxCell id="KRgtnpFTlKRBo5wsaVx2-2" value="клиент" style="rounded=0;whiteSpace=wrap;html=1;" vertex="1" parent="1">
          <mxGeometry x="120" y="40" width="840" height="40" as="geometry" />
        </mxCell>
        <mxCell id="KRgtnpFTlKRBo5wsaVx2-11" value="" style="endArrow=blockThin;html=1;labelPosition=left;verticalLabelPosition=middle;align=right;verticalAlign=middle;dashed=1;dashPattern=8 4;endFill=0;startArrow=oval;startFill=0;endSize=6;startSize=4;rounded=0;entryX=0.5;entryY=0;entryDx=0;entryDy=0;exitX=0.094;exitY=1.1;exitDx=0;exitDy=0;exitPerimeter=0;" edge="1" parent="1" source="KRgtnpFTlKRBo5wsaVx2-2" target="dNxyNK7c78bLwvsdeMH5-23">
          <mxGeometry relative="1" as="geometry">
            <mxPoint x="330" y="70" as="sourcePoint" />
            <mxPoint x="490" y="70" as="targetPoint" />
          </mxGeometry>
        </mxCell>
        <mxCell id="KRgtnpFTlKRBo5wsaVx2-12" value="" style="shape=message;html=1;outlineConnect=0;labelPosition=left;verticalLabelPosition=middle;align=right;verticalAlign=middle;spacingRight=5;labelBackgroundColor=#ffffff;" vertex="1" parent="KRgtnpFTlKRBo5wsaVx2-11">
          <mxGeometry width="24" height="16" relative="1" as="geometry">
            <mxPoint x="10" y="-30" as="offset" />
          </mxGeometry>
        </mxCell>
        <mxCell id="KRgtnpFTlKRBo5wsaVx2-16" value="мастер" style="swimlane;html=1;startSize=20;horizontal=0;" vertex="1" parent="1">
          <mxGeometry x="140" y="360" width="820" height="120" as="geometry">
            <mxRectangle x="140" y="360" width="40" height="70" as="alternateBounds" />
          </mxGeometry>
        </mxCell>
        <mxCell id="KRgtnpFTlKRBo5wsaVx2-27" style="edgeStyle=orthogonalEdgeStyle;rounded=0;orthogonalLoop=1;jettySize=auto;html=1;exitX=1;exitY=0.5;exitDx=0;exitDy=0;entryX=0;entryY=0.5;entryDx=0;entryDy=0;entryPerimeter=0;" edge="1" parent="KRgtnpFTlKRBo5wsaVx2-16" source="kgiaQRq-cX29MRZ9A9bn-7" target="KRgtnpFTlKRBo5wsaVx2-25">
          <mxGeometry relative="1" as="geometry" />
        </mxCell>
        <mxCell id="kgiaQRq-cX29MRZ9A9bn-7" value="определение возможности ремонта мастером" style="rounded=0;whiteSpace=wrap;html=1;fontFamily=Helvetica;fontSize=12;fontColor=#000000;align=center;" parent="KRgtnpFTlKRBo5wsaVx2-16" vertex="1">
          <mxGeometry x="234" y="30" width="80" height="60" as="geometry" />
        </mxCell>
        <mxCell id="KRgtnpFTlKRBo5wsaVx2-25" value="" style="points=[[0.25,0.25,0],[0.5,0,0],[0.75,0.25,0],[1,0.5,0],[0.75,0.75,0],[0.5,1,0],[0.25,0.75,0],[0,0.5,0]];shape=mxgraph.bpmn.gateway2;html=1;verticalLabelPosition=bottom;labelBackgroundColor=#ffffff;verticalAlign=top;align=center;perimeter=rhombusPerimeter;outlineConnect=0;outline=none;symbol=none;gwType=exclusive;" vertex="1" parent="KRgtnpFTlKRBo5wsaVx2-16">
          <mxGeometry x="350" y="35" width="50" height="50" as="geometry" />
        </mxCell>
        <mxCell id="KRgtnpFTlKRBo5wsaVx2-34" value="ремонт&lt;br&gt;невозможен" style="text;html=1;align=center;verticalAlign=middle;resizable=0;points=[];autosize=1;strokeColor=none;fillColor=none;" vertex="1" parent="KRgtnpFTlKRBo5wsaVx2-16">
          <mxGeometry x="370" width="90" height="40" as="geometry" />
        </mxCell>
        <mxCell id="KRgtnpFTlKRBo5wsaVx2-38" value="ремонт&lt;br&gt;возможен" style="text;html=1;align=center;verticalAlign=middle;resizable=0;points=[];autosize=1;strokeColor=none;fillColor=none;" vertex="1" parent="KRgtnpFTlKRBo5wsaVx2-16">
          <mxGeometry x="395" y="70" width="80" height="40" as="geometry" />
        </mxCell>
        <mxCell id="kgiaQRq-cX29MRZ9A9bn-8" style="edgeStyle=orthogonalEdgeStyle;rounded=0;orthogonalLoop=1;jettySize=auto;html=1;entryX=0.5;entryY=0;entryDx=0;entryDy=0;" parent="1" source="dNxyNK7c78bLwvsdeMH5-30" target="kgiaQRq-cX29MRZ9A9bn-7" edge="1">
          <mxGeometry relative="1" as="geometry" />
        </mxCell>
        <mxCell id="KRgtnpFTlKRBo5wsaVx2-30" style="edgeStyle=orthogonalEdgeStyle;rounded=0;orthogonalLoop=1;jettySize=auto;html=1;exitX=0.5;exitY=0;exitDx=0;exitDy=0;exitPerimeter=0;entryX=0.5;entryY=1;entryDx=0;entryDy=0;entryPerimeter=0;" edge="1" parent="1" source="KRgtnpFTlKRBo5wsaVx2-25" target="KRgtnpFTlKRBo5wsaVx2-28">
          <mxGeometry relative="1" as="geometry" />
        </mxCell>
        <mxCell id="KRgtnpFTlKRBo5wsaVx2-31" value="" style="endArrow=blockThin;html=1;labelPosition=left;verticalLabelPosition=middle;align=right;verticalAlign=middle;dashed=1;dashPattern=8 4;endFill=0;startArrow=oval;startFill=0;endSize=6;startSize=4;rounded=0;exitX=0.5;exitY=0;exitDx=0;exitDy=0;exitPerimeter=0;" edge="1" parent="1" source="KRgtnpFTlKRBo5wsaVx2-28">
          <mxGeometry relative="1" as="geometry">
            <mxPoint x="510" y="150" as="sourcePoint" />
            <mxPoint x="515" y="80" as="targetPoint" />
          </mxGeometry>
        </mxCell>
        <mxCell id="KRgtnpFTlKRBo5wsaVx2-32" value="" style="shape=message;html=1;outlineConnect=0;labelPosition=left;verticalLabelPosition=middle;align=right;verticalAlign=middle;spacingRight=5;labelBackgroundColor=#ffffff;fillColor=#C0C0C0;" vertex="1" parent="KRgtnpFTlKRBo5wsaVx2-31">
          <mxGeometry width="24" height="16" relative="1" as="geometry">
            <mxPoint x="8" y="-27" as="offset" />
          </mxGeometry>
        </mxCell>
        <mxCell id="KRgtnpFTlKRBo5wsaVx2-37" style="edgeStyle=orthogonalEdgeStyle;rounded=0;orthogonalLoop=1;jettySize=auto;html=1;exitX=1;exitY=0.5;exitDx=0;exitDy=0;exitPerimeter=0;entryX=0.5;entryY=1;entryDx=0;entryDy=0;" edge="1" parent="1" source="KRgtnpFTlKRBo5wsaVx2-25" target="KRgtnpFTlKRBo5wsaVx2-35">
          <mxGeometry relative="1" as="geometry" />
        </mxCell>
        <mxCell id="KRgtnpFTlKRBo5wsaVx2-58" value="" style="endArrow=blockThin;html=1;labelPosition=left;verticalLabelPosition=middle;align=right;verticalAlign=middle;dashed=1;dashPattern=8 4;endFill=0;startArrow=oval;startFill=0;endSize=6;startSize=4;rounded=0;entryX=0.942;entryY=1.108;entryDx=0;entryDy=0;entryPerimeter=0;" edge="1" parent="1" target="KRgtnpFTlKRBo5wsaVx2-2">
          <mxGeometry relative="1" as="geometry">
            <mxPoint x="911" y="150" as="sourcePoint" />
            <mxPoint x="921.04" y="146" as="targetPoint" />
          </mxGeometry>
        </mxCell>
        <mxCell id="KRgtnpFTlKRBo5wsaVx2-59" value="" style="shape=message;html=1;outlineConnect=0;labelPosition=left;verticalLabelPosition=middle;align=right;verticalAlign=middle;spacingRight=5;labelBackgroundColor=#ffffff;" vertex="1" parent="KRgtnpFTlKRBo5wsaVx2-58">
          <mxGeometry width="24" height="16" relative="1" as="geometry">
            <mxPoint x="10" y="-30" as="offset" />
          </mxGeometry>
        </mxCell>
      </root>
    </mxGraphModel>
  </diagram>
</mxfile>
